<?xml version="1.0" encoding="UTF-8" standalone="no"?>
<!-- Created with Inkscape (http://www.inkscape.org/) -->

<svg
   xmlns:dc="http://purl.org/dc/elements/1.1/"
   xmlns:cc="http://creativecommons.org/ns#"
   xmlns:rdf="http://www.w3.org/1999/02/22-rdf-syntax-ns#"
   xmlns:svg="http://www.w3.org/2000/svg"
   xmlns="http://www.w3.org/2000/svg"
   version="1.1"
   width="200"
   height="200"
   id="svg2">
  <defs
     id="defs4" />
  <metadata
     id="metadata7">
    <rdf:RDF>
      <cc:Work
         rdf:about="">
        <dc:format>image/svg+xml</dc:format>
        <dc:type
           rdf:resource="http://purl.org/dc/dcmitype/StillImage" />
        <dc:title></dc:title>
      </cc:Work>
    </rdf:RDF>
  </metadata>
  <g
     transform="translate(-462.25464,-363.2813)"
     id="layer1">
    <text
       x="377.63281"
       y="540.62781"
       id="text3813"
       xml:space="preserve"
       style="font-size:20px;font-style:normal;font-variant:normal;font-weight:normal;font-stretch:normal;line-height:125%;letter-spacing:0px;word-spacing:0px;fill:#000000;fill-opacity:1;stroke:none;font-family:Helvetica Neue;-inkscape-font-specification:Helvetica Neue"><tspan
         x="377.63281"
         y="540.62781"
         id="tspan3815" /></text>
    <text
       x="-86.974136"
       y="103.12637"
       transform="translate(462.25464,363.2813)"
       id="text3841"
       xml:space="preserve"
       style="font-size:100px;font-style:normal;font-variant:normal;font-weight:normal;font-stretch:normal;line-height:125%;letter-spacing:0px;word-spacing:0px;fill:#000000;fill-opacity:1;stroke:none;font-family:Helvetica Neue;-inkscape-font-specification:Helvetica Neue"><tspan
         x="-86.974136"
         y="103.12637"
         id="tspan3843" /></text>
    <path
       d="m 599.94214,374.5938 c -5.73338,1.1e-4 -11.20629,0.58136 -16.40625,1.78125 -5.20003,1.20011 -9.78128,3.2001 -13.78125,6 -4.00002,2.66676 -7.19377,6.19384 -9.59375,10.59375 -2.40001,4.40009 -3.73335,9.81883 -4,16.21875 l 0,13.78125 -0.40625,0 c -1.86675,-3.06657 -4.20009,-5.59365 -7,-7.59375 -2.66675,-2.13323 -5.52716,-3.7999 -8.59375,-5 -3.06674,-1.33323 -6.15215,-2.24781 -9.21875,-2.78125 -3.06673,-0.53323 -5.92714,-0.81239 -8.59375,-0.8125 -7.86671,1.1e-4 -14.81254,1.47302 -20.8125,4.40625 -5.8667,2.8001 -10.78127,6.66051 -14.78125,11.59375 -3.86668,4.80009 -6.81251,10.46675 -8.8125,17 -1.86668,6.5334 -2.78126,13.47923 -2.78125,20.8125 -10e-6,7.33338 0.99999,14.24796 3,20.78125 1.99999,6.53336 4.91457,12.28544 8.78125,17.21875 3.99998,4.93334 8.9458,8.84792 14.8125,11.78125 5.99996,2.93333 12.99995,4.40625 21,4.40625 7.19994,0 13.78118,-1.27917 19.78125,-3.8125 5.99992,-2.53333 10.41866,-6.64166 13.21875,-12.375 l 0.40625,0 0,53.375 17,0 0,-71 c -4.13336,-0.93333 -7.80002,-2.51458 -11,-4.78125 -2.38213,-1.86426 -4.40445,-4.09917 -6.0625,-6.6875 -0.28883,1.905 -0.67201,3.80423 -1.15625,5.6875 -1.06675,4.6667 -2.873,8.86045 -5.40625,12.59375 -2.53341,3.60002 -5.78133,6.54585 -9.78125,8.8125 -4.00007,2.26668 -8.86048,3.37501 -14.59375,3.375 -5.46672,1e-5 -10.27297,-1.05415 -14.40625,-3.1875 -4.00004,-2.13332 -7.33337,-4.99373 -10,-8.59375 -2.53337,-3.59997 -4.4792,-7.68538 -5.8125,-12.21875 -1.20003,-4.66662 -1.78128,-9.38745 -1.78125,-14.1875 -3e-5,-5.06661 0.52706,-10.01244 1.59375,-14.8125 1.06664,-4.79993 2.78747,-9.04784 5.1875,-12.78125 2.39996,-3.73325 5.59371,-6.73325 9.59375,-9 3.99995,-2.26657 8.89161,-3.40616 14.625,-3.40625 5.8666,9e-5 10.8666,1.13968 15,3.40625 4.13326,2.13342 7.46659,4.99383 10,8.59375 1.93107,2.60708 3.463,5.54494 4.625,8.78125 0.3888,-1.13527 0.84659,-2.20113 1.375,-3.1875 1.99999,-3.73329 4.58123,-6.73328 7.78125,-9 3.06233,-2.20484 6.48116,-3.90164 10.21875,-5.09375 l 0,-16.09375 c 0.39997,-7.59992 2.98122,-12.7395 7.78125,-15.40625 4.79996,-2.79991 10.79995,-4.18741 18,-4.1875 2.66661,9e-5 5.33327,0.19384 8,0.59375 2.79994,0.40009 5.27285,1.20634 7.40625,2.40625 2.2666,1.20009 4.07284,2.92092 5.40625,5.1875 1.46659,2.26675 2.18742,5.26675 2.1875,9 -8e-5,3.20007 -0.91466,5.67299 -2.78125,7.40625 -1.86674,1.60007 -4.42507,2.84798 -7.625,3.78125 -3.20006,0.80006 -6.92089,1.46673 -11.1875,2 -4.13338,0.40006 -8.52088,1.06673 -13.1875,2 -4.40004,0.80006 -8.73337,1.80006 -13,3 -0.33602,0.0976 -0.66927,0.20701 -1,0.3125 l 0,17.0625 c 1.96699,-2.40769 4.41262,-4.27448 7.375,-5.5625 3.06663,-1.33329 6.53954,-2.27912 10.40625,-2.8125 3.86662,-0.66662 7.67286,-1.1937 11.40625,-1.59375 3.86661,-0.53328 7.53327,-1.11453 11,-1.78125 3.46659,-0.79995 6.27284,-2.02495 8.40625,-3.625 l 0,17.40625 c -8e-5,2.40004 -0.61258,5.01253 -1.8125,7.8125 -1.20007,2.66669 -3.06049,5.19378 -5.59375,7.59375 -2.5334,2.26669 -5.81256,4.21252 -9.8125,5.8125 -4.00006,1.46668 -8.77505,2.18752 -14.375,2.1875 -2.53338,2e-5 -5.09171,-0.27915 -7.625,-0.8125 -2.40004,-0.53332 -4.50837,-1.39373 -6.375,-2.59375 -1.11014,-0.76853 -2.10865,-1.67674 -3,-2.71875 l 0,19.3125 c 4.1333,1.06667 8.5208,1.625 13.1875,1.625 7.19995,0 13.86661,-1.225 20,-3.625 6.2666,-2.53333 11.73951,-6.58749 16.40625,-12.1875 -8e-5,5.60001 1.24784,9.65417 3.78125,12.1875 2.66658,2.4 6.22491,3.625 10.625,3.625 5.1999,0 9.25407,-0.89167 12.1875,-2.625 l 0,-13.1875 c -2.0001,0.66668 -3.72093,1.00002 -5.1875,1 -2.66676,2e-5 -4.27926,-0.94582 -4.8125,-2.8125 -0.40009,-1.86665 -0.59384,-4.78123 -0.59375,-8.78125 l 0,-53.21875 c -9e-5,-5.99991 -1.13968,-10.86033 -3.40625,-14.59375 -2.26675,-3.73323 -5.26675,-6.59365 -9,-8.59375 -3.73341,-2.13323 -7.92716,-3.52073 -12.59375,-4.1875 -4.5334,-0.66656 -9.14589,-0.99989 -13.8125,-1 z m -26.78125,87.0625 0,-19.3125 c -0.0693,0.0848 -0.15072,0.16383 -0.21875,0.25 -1.86669,2.40004 -2.78128,5.73337 -2.78125,10 -3e-5,2.80003 0.52706,5.18753 1.59375,7.1875 0.43144,0.67116 0.90585,1.29003 1.40625,1.875 z m -19.375,-19.09375 c -1.0828,3.16171 -1.62501,6.9021 -1.625,11.21875 -10e-6,5.20002 0.86041,9.67294 2.59375,13.40625 0.41668,0.8036 0.86728,1.5687 1.34375,2.3125 0.42687,-2.81546 0.6562,-5.66832 0.65625,-8.53125 -9e-5,-5.06661 -0.61259,-9.92702 -1.8125,-14.59375 -0.33102,-1.32394 -0.71367,-2.57984 -1.15625,-3.8125 z"
       id="text3845"
       style="font-size:200px;font-style:normal;font-variant:normal;font-weight:normal;font-stretch:normal;line-height:125%;letter-spacing:0px;word-spacing:0px;fill:#000000;fill-opacity:1;stroke:none;font-family:Helvetica Neue;-inkscape-font-specification:Helvetica Neue" />
    <g
       id="text3845-5"
       style="font-size:200px;font-style:normal;font-variant:normal;font-weight:normal;font-stretch:normal;line-height:125%;letter-spacing:0px;word-spacing:0px;fill:#000000;fill-opacity:1;stroke:none;font-family:Helvetica Neue;-inkscape-font-specification:Helvetica Neue" />
    <text
       x="-23.5"
       y="44.5"
       transform="translate(462.25464,363.2813)"
       id="text4065"
       xml:space="preserve"
       style="font-size:200px;font-style:normal;font-variant:normal;font-weight:normal;font-stretch:normal;line-height:125%;letter-spacing:0px;word-spacing:0px;fill:#000000;fill-opacity:1;stroke:none;font-family:Helvetica Neue;-inkscape-font-specification:Helvetica Neue"><tspan
         x="-23.5"
         y="44.5"
         id="tspan4067"></tspan></text>
  </g>
</svg>
